<mxfile host="Electron" modified="2024-10-06T20:11:56.618Z" agent="Mozilla/5.0 (X11; Linux x86_64) AppleWebKit/537.36 (KHTML, like Gecko) draw.io/24.5.1 Chrome/124.0.6367.207 Electron/30.0.6 Safari/537.36" etag="3zzpfvAGJPawzNM8dYS5" version="24.5.1" type="device" pages="2">
  <diagram id="IqU7WHgcD0uiOO1NTE0H" name="KCard">
    <mxGraphModel dx="1487" dy="969" grid="1" gridSize="10" guides="1" tooltips="1" connect="1" arrows="1" fold="1" page="1" pageScale="1" pageWidth="827" pageHeight="1169" math="0" shadow="0">
      <root>
        <mxCell id="0" />
        <mxCell id="1" parent="0" />
        <mxCell id="HvI_MeQyovm3IAeio-AX-49" value="" style="rounded=0;whiteSpace=wrap;html=1;fillColor=#dae8fc;strokeColor=#6c8ebf;sketch=1;curveFitting=1;jiggle=2;" vertex="1" parent="1">
          <mxGeometry x="490" y="770" width="350" height="150" as="geometry" />
        </mxCell>
        <mxCell id="qZt2UY9Dv8WojuRAOEdF-6" value="" style="rounded=0;whiteSpace=wrap;html=1;fillColor=#dae8fc;strokeColor=#6c8ebf;sketch=1;curveFitting=1;jiggle=2;" parent="1" vertex="1">
          <mxGeometry x="130" y="140" width="350" height="370" as="geometry" />
        </mxCell>
        <mxCell id="HvI_MeQyovm3IAeio-AX-1" value="Header" style="rounded=0;whiteSpace=wrap;html=1;fillColor=#fff2cc;strokeColor=#d6b656;sketch=1;curveFitting=1;jiggle=2;" vertex="1" parent="1">
          <mxGeometry x="140" y="147" width="330" height="40" as="geometry" />
        </mxCell>
        <mxCell id="HvI_MeQyovm3IAeio-AX-2" value="Footer" style="rounded=0;whiteSpace=wrap;html=1;fillColor=#fff2cc;strokeColor=#d6b656;sketch=1;curveFitting=1;jiggle=2;" vertex="1" parent="1">
          <mxGeometry x="140" y="447" width="330" height="40" as="geometry" />
        </mxCell>
        <mxCell id="HvI_MeQyovm3IAeio-AX-5" value="Sections" style="rounded=0;whiteSpace=wrap;html=1;fillColor=#fff2cc;strokeColor=#d6b656;sketch=1;curveFitting=1;jiggle=2;" vertex="1" parent="1">
          <mxGeometry x="140" y="240" width="330" height="200" as="geometry" />
        </mxCell>
        <mxCell id="HvI_MeQyovm3IAeio-AX-7" value="" style="rounded=0;whiteSpace=wrap;html=1;fillColor=#dae8fc;strokeColor=#6c8ebf;sketch=1;curveFitting=1;jiggle=2;" vertex="1" parent="1">
          <mxGeometry x="520" y="140" width="350" height="540" as="geometry" />
        </mxCell>
        <mxCell id="HvI_MeQyovm3IAeio-AX-8" value="Header" style="rounded=0;whiteSpace=wrap;html=1;fillColor=#fff2cc;strokeColor=#d6b656;sketch=1;curveFitting=1;jiggle=2;" vertex="1" parent="1">
          <mxGeometry x="530" y="147" width="330" height="40" as="geometry" />
        </mxCell>
        <mxCell id="HvI_MeQyovm3IAeio-AX-9" value="Footer" style="rounded=0;whiteSpace=wrap;html=1;fillColor=#fff2cc;strokeColor=#d6b656;sketch=1;curveFitting=1;jiggle=2;" vertex="1" parent="1">
          <mxGeometry x="530" y="616" width="330" height="40" as="geometry" />
        </mxCell>
        <mxCell id="HvI_MeQyovm3IAeio-AX-10" value="Sections" style="rounded=0;whiteSpace=wrap;html=1;fillColor=#fff2cc;strokeColor=#d6b656;sketch=1;curveFitting=1;jiggle=2;" vertex="1" parent="1">
          <mxGeometry x="530" y="240" width="330" height="200" as="geometry" />
        </mxCell>
        <mxCell id="HvI_MeQyovm3IAeio-AX-32" value="Heading" style="rounded=0;whiteSpace=wrap;html=1;fillColor=#fff2cc;strokeColor=#d6b656;sketch=1;curveFitting=1;jiggle=2;" vertex="1" parent="1">
          <mxGeometry x="140" y="194" width="330" height="40" as="geometry" />
        </mxCell>
        <mxCell id="HvI_MeQyovm3IAeio-AX-33" value="Heading" style="rounded=0;whiteSpace=wrap;html=1;fillColor=#fff2cc;strokeColor=#d6b656;sketch=1;curveFitting=1;jiggle=2;" vertex="1" parent="1">
          <mxGeometry x="530" y="194" width="330" height="40" as="geometry" />
        </mxCell>
        <mxCell id="HvI_MeQyovm3IAeio-AX-34" value="" style="rounded=0;whiteSpace=wrap;html=1;fillColor=#fff2cc;strokeColor=#d6b656;sketch=1;curveFitting=1;jiggle=2;" vertex="1" parent="1">
          <mxGeometry x="140" y="630" width="330" height="40" as="geometry" />
        </mxCell>
        <mxCell id="HvI_MeQyovm3IAeio-AX-35" value="Content" style="rounded=0;whiteSpace=wrap;html=1;fillColor=#dae8fc;strokeColor=#6c8ebf;sketch=1;curveFitting=1;jiggle=2;" vertex="1" parent="1">
          <mxGeometry x="150" y="637" width="310" height="25" as="geometry" />
        </mxCell>
        <mxCell id="HvI_MeQyovm3IAeio-AX-36" value="" style="rounded=0;whiteSpace=wrap;html=1;fillColor=#fff2cc;strokeColor=#d6b656;sketch=1;curveFitting=1;jiggle=2;" vertex="1" parent="1">
          <mxGeometry x="140" y="690" width="330" height="40" as="geometry" />
        </mxCell>
        <mxCell id="HvI_MeQyovm3IAeio-AX-37" value="A" style="rounded=0;whiteSpace=wrap;html=1;fillColor=#ffe6cc;strokeColor=#d79b00;sketch=1;curveFitting=1;jiggle=2;" vertex="1" parent="1">
          <mxGeometry x="150" y="697" width="30" height="25" as="geometry" />
        </mxCell>
        <mxCell id="HvI_MeQyovm3IAeio-AX-38" value="Title" style="rounded=0;whiteSpace=wrap;html=1;fillColor=#ffe6cc;strokeColor=#d79b00;sketch=1;curveFitting=1;jiggle=2;" vertex="1" parent="1">
          <mxGeometry x="190" y="697.5" width="270" height="25" as="geometry" />
        </mxCell>
        <mxCell id="HvI_MeQyovm3IAeio-AX-12" value="" style="html=1;verticalLabelPosition=bottom;labelBackgroundColor=#ffffff;verticalAlign=top;shadow=0;dashed=0;strokeWidth=2;shape=mxgraph.ios7.misc.down;strokeColor=#808080;rotation=-180;sketch=1;curveFitting=1;jiggle=2;" vertex="1" parent="1">
          <mxGeometry x="688.61" y="668" width="13.391304347826086" height="7" as="geometry" />
        </mxCell>
        <mxCell id="HvI_MeQyovm3IAeio-AX-14" value="" style="html=1;verticalLabelPosition=bottom;labelBackgroundColor=#ffffff;verticalAlign=top;shadow=0;dashed=0;strokeWidth=2;shape=mxgraph.ios7.misc.down;strokeColor=#808080;" vertex="1" parent="1">
          <mxGeometry x="295.99869565217386" y="497.5" width="13.391304347826086" height="7" as="geometry" />
        </mxCell>
        <mxCell id="HvI_MeQyovm3IAeio-AX-45" value="Expandable&lt;div&gt;sections&lt;/div&gt;" style="rounded=0;whiteSpace=wrap;html=1;fillColor=#fff2cc;strokeColor=#d6b656;sketch=1;curveFitting=1;jiggle=2;" vertex="1" parent="1">
          <mxGeometry x="530" y="447" width="330" height="163" as="geometry" />
        </mxCell>
        <mxCell id="HvI_MeQyovm3IAeio-AX-46" value="Title" style="rounded=0;whiteSpace=wrap;html=1;fillColor=#fff2cc;strokeColor=#d6b656;sketch=1;curveFitting=1;jiggle=2;" vertex="1" parent="1">
          <mxGeometry x="498" y="779" width="196" height="25" as="geometry" />
        </mxCell>
        <mxCell id="HvI_MeQyovm3IAeio-AX-47" value="Actions" style="rounded=0;whiteSpace=wrap;html=1;fillColor=#dae8fc;strokeColor=#6c8ebf;sketch=1;curveFitting=1;jiggle=2;" vertex="1" parent="1">
          <mxGeometry x="702" y="779" width="130" height="25" as="geometry" />
        </mxCell>
        <mxCell id="HvI_MeQyovm3IAeio-AX-51" value="Custom" style="rounded=0;whiteSpace=wrap;html=1;fillColor=#e1d5e7;strokeColor=#9673a6;sketch=1;curveFitting=1;jiggle=2;" vertex="1" parent="1">
          <mxGeometry x="498" y="810" width="334" height="100" as="geometry" />
        </mxCell>
      </root>
    </mxGraphModel>
  </diagram>
  <diagram id="3J6XpfmjnVEyp5UPETQi" name="KItem">
    <mxGraphModel dx="1784" dy="1163" grid="1" gridSize="10" guides="1" tooltips="1" connect="1" arrows="1" fold="1" page="1" pageScale="1" pageWidth="827" pageHeight="1169" math="0" shadow="0">
      <root>
        <mxCell id="0" />
        <mxCell id="1" parent="0" />
      </root>
    </mxGraphModel>
  </diagram>
</mxfile>
